:version 1.10
:name ASF
:units
  mass 1
  length 1
  angle deg
:documentation
  ASF file generated by Kaydara
:root
  axis xyz
  order  tx ty tz rx ry rz
  position 0 0 0
  orientation 0 0 0
:bonedata
  begin
    id 1
    name SpineDummy
    direction 0.999998 -0.00179978 1.38929e-006
    length 3.60008
    axis 0 0 0 xyz
  end
  begin
    id 2
    name Spine
    direction 0.964365 0.262802 0.0305839
    length 8.13928
    axis 1.33928 -1.75354 15.2838 xyz
    dof rx ry rz
  end
  begin
    id 3
    name Spine1
    direction 0.811168 0.572065 0.12144
    length 7.14954
    axis 2.2224 -6.9761 35.2157 xyz
    dof rx ry rz
  end
  begin
    id 4
    name Neck
    direction 0 0 0
    length 0
    axis 2.2224 -6.9761 35.2157 xyz
    dof rx ry rz
  end
  begin
    id 5
    name HeadDummy
    direction 0.810939 0.572387 0.121455
    length 3.55534
    axis 2.2224 -6.9761 35.2157 xyz
  end
  begin
    id 6
    name Head
    direction 0.998226 -0.000232542 0.0595419
    length 7.35666
    axis -3.03688 -3.41352 -0.0133467 xyz
    dof rx ry rz
  end
  begin
    id 7
    name R_ClavicleDummy
    direction 0.531669 -0.194489 -0.824319
    length 2.49392
    axis 2.2224 -6.9761 35.2157 xyz
  end
  begin
    id 8
    name R_Clavicle
    direction -0.155119 0.0480802 -0.986725
    length 4.485
    axis -54.2764 80.6538 162.779 xyz
    dof rx ry rz
  end
  begin
    id 9
    name R_UpperArm
    direction -0.955567 0.200068 -0.216484
    length 10.1122
    axis -72.9943 12.5026 168.175 xyz
    dof rx ry rz
  end
  begin
    id 10
    name R_Forearm
    direction -0.61433 0.385743 0.688332
    length 9.39148
    axis -117.015 -43.4982 147.875 xyz
    dof rx ry rz
  end
  begin
    id 11
    name R_Hand
    direction -0.699429 0.0170333 0.714499
    length 3.66324
    axis -45.0303 -36.7097 175.478 xyz
    dof rx ry rz
  end
  begin
    id 12
    name L_ClavicleDummy
    direction 0.40287 -0.36502 0.839319
    length 2.49392
    axis 2.2224 -6.9761 35.2157 xyz
  end
  begin
    id 13
    name L_Clavicle
    direction -0.231271 -0.0726419 0.970174
    length 4.485
    axis 18.4357 -75.9711 -162.563 xyz
    dof rx ry rz
  end
  begin
    id 14
    name L_UpperArm
    direction -0.917494 0.144359 0.370629
    length 10.1122
    axis 56.0417 -21.7544 171.058 xyz
    dof rx ry rz
  end
  begin
    id 15
    name L_Forearm
    direction -0.496786 0.615074 -0.612281
    length 9.39148
    axis 89.8094 37.7546 128.927 xyz
    dof rx ry rz
  end
  begin
    id 16
    name L_Hand
    direction -0.409932 0.64962 -0.640274
    length 3.66324
    axis -0.424369 32.133 128.52 xyz
    dof rx ry rz
  end
  begin
    id 17
    name L_ThighDummy
    direction -1.84081e-006 1.87549e-006 1
    length 3.13049
    axis 0 0 0 xyz
  end
  begin
    id 18
    name L_Thigh
    direction -0.947739 0.307978 0.083308
    length 17.9961
    axis 173.219 -4.77873 161.998 xyz
    dof rx ry rz
  end
  begin
    id 19
    name L_Calf
    direction -0.728814 -0.684427 0.0197583
    length 13.3367
    axis 167.331 -1.13214 -136.799 xyz
    dof rx ry rz
  end
  begin
    id 20
    name L_Foot
    direction -0.9028 0.418719 0.0981191
    length 5.8674
    axis 163.436 11.5135 -155.37 xyz
    dof rx ry rz
  end
  begin
    id 21
    name L_Toe0
    direction -0.35341 0.886259 0.299411
    length 4.75286
    axis 169.316 -17.4222 111.74 xyz
    dof rx ry rz
  end
  begin
    id 22
    name R_ThighDummy
    direction 9.32778e-007 -8.82053e-007 -1
    length 3.13049
    axis 0 0 0 xyz
  end
  begin
    id 23
    name R_Thigh
    direction -0.925064 0.37528 -0.0585023
    length 17.9961
    axis -178.698 3.35385 157.919 xyz
    dof rx ry rz
  end
  begin
    id 24
    name R_Calf
    direction -0.68969 -0.718776 -0.0876886
    length 13.3367
    axis -160.504 5.03065 -133.817 xyz
    dof rx ry rz
  end
  begin
    id 25
    name R_Foot
    direction -0.857405 0.418858 -0.299022
    length 5.8674
    axis -161.328 4.38911 -154.413 xyz
    dof rx ry rz
  end
  begin
    id 26
    name R_Toe0
    direction -0.100745 0.952789 -0.286433
    length 4.75286
    axis 171.683 16.6445 96.0359 xyz
    dof rx ry rz
  end
:hierarchy
  begin
    root SpineDummy L_ThighDummy R_ThighDummy
    SpineDummy Spine
    Spine Spine1
    Spine1 Neck
    Neck HeadDummy R_ClavicleDummy L_ClavicleDummy
    HeadDummy Head
    R_ClavicleDummy R_Clavicle
    R_Clavicle R_UpperArm
    R_UpperArm R_Forearm
    R_Forearm R_Hand
    L_ClavicleDummy L_Clavicle
    L_Clavicle L_UpperArm
    L_UpperArm L_Forearm
    L_Forearm L_Hand
    L_ThighDummy L_Thigh
    L_Thigh L_Calf
    L_Calf L_Foot
    L_Foot L_Toe0
    R_ThighDummy R_Thigh
    R_Thigh R_Calf
    R_Calf R_Foot
    R_Foot R_Toe0
  end

:SAMPLES-PER-SECOND 30
:FULLY-SPECIFIED
:DEGREES
324
root  2.80232 31.89 -66.1537 165.99 -9.77507 94.8632
Spine  3.63359 12.2916 -9.27733
Spine1  2.54687 -14.3573 2.27287
Neck  3.97569e-016 0 -2.38542e-015
Head  53.7393 -7.81392 19.322
R_Clavicle  0.305054 -13.6947 0.648954
R_UpperArm  1.9743 -3.3636 5.45374
R_Forearm  17.1116 -13.7243 11.6796
R_Hand  -0.404732 5.97098 -13.2514
L_Clavicle  -0.604217 19.0947 -2.13089
L_UpperArm  -18.9951 17.0909 30.0942
L_Forearm  6.77075 39.368 42.4311
L_Hand  0.0171667 -0.00409348 0.351299
L_Thigh  -3.63643 -11.2376 7.40868
L_Calf  6.72465 -6.09838 28.6483
L_Foot  3.57417 9.36156 4.48464
L_Toe0  0.505451 0.0344711 -6.13894
R_Thigh  -24.9479 10.4126 -30.4138
R_Calf  -11.9235 11.0679 37.4896
R_Foot  -9.86517 -24.8945 7.81018
R_Toe0  -1.78853 -0.272557 -17.3235
325
root  3.57696 31.5766 -66.2255 161.096 -8.31566 95.8473
Spine  3.91332 13.5238 -8.7866
Spine1  2.5691 -14.8543 2.2004
Neck  3.97569e-016 0 -2.38542e-015
Head  48.2171 -8.84953 20.0701
R_Clavicle  0.29916 -14.0551 0.501591
R_UpperArm  2.52571 -2.74824 4.85225
R_Forearm  16.9404 -14.8252 12.6758
R_Hand  -0.432027 5.79222 -13.3937
L_Clavicle  -0.638585 19.6569 -2.3197
L_UpperArm  -18.6362 17.6267 29.7714
L_Forearm  4.40786 39.2299 42.2608
L_Hand  -0.0105821 -0.57017 -0.285484
L_Thigh  2.23188 -12.4504 9.34129
L_Calf  5.40904 -6.56053 27.5675
L_Foot  4.89856 10.7788 7.53502
L_Toe0  0.5055 0.0344753 -6.13942
R_Thigh  -27.0023 10.2305 -32.3771
R_Calf  -14.2729 10.5854 35.381
R_Foot  -11.0726 -25.3275 10.696
R_Toe0  -1.78992 -0.273128 -17.338
326
root  4.36038 31.139 -66.1988 157.941 -7.3668 96.5971
Spine  3.57742 12.6569 -8.90146
Spine1  2.13478 -13.3717 2.90269
Neck  3.97569e-016 0 -2.38542e-015
Head  40.9838 -9.67777 20.1434
R_Clavicle  0.338251 -15.0596 0.867869
R_UpperArm  2.68176 -1.78272 5.04598
R_Forearm  17.9057 -15.9502 13.7084
R_Hand  -0.584501 6.54502 -15.1385
L_Clavicle  -0.680824 20.8419 -1.89477
L_UpperArm  -16.5275 15.9523 28.4456
L_Forearm  1.87532 39.3405 41.4741
L_Hand  -0.0108819 -1.13279 -0.37474
L_Thigh  1.23569 -13.2258 11.0072
L_Calf  9.42249 -4.51636 23.2576
L_Foot  4.27981 11.4843 4.86853
L_Toe0  0.505548 0.0344794 -6.13988
R_Thigh  -27.7358 10.0468 -33.8073
R_Calf  -15.7909 9.83217 32.4553
R_Foot  -12.5867 -25.5258 14.5365
R_Toe0  -1.79001 -0.274408 -17.3974
327
root  5.17228 30.6467 -66.094 155.539 -7.2244 97.4291
Spine  3.19907 9.77024 -9.06043
Spine1  1.83247 -10.8528 3.93845
Neck  3.97569e-016 0 -2.38542e-015
Head  32.1023 -9.50336 20.3282
R_Clavicle  0.377392 -15.9937 1.36616
R_UpperArm  3.67741 -1.38993 6.45638
R_Forearm  19.7231 -17.1239 14.8031
R_Hand  -0.858124 7.46508 -17.6806
L_Clavicle  -0.697263 21.9372 -1.25635
L_UpperArm  -13.3034 12.9288 25.9706
L_Forearm  -0.116201 39.1988 40.3308
L_Hand  -0.0104803 -1.60825 -0.44293
L_Thigh  -0.257128 -14.1467 11.6745
L_Calf  10.3146 -2.90112 18.9034
L_Foot  3.1399 13.6324 -0.573775
L_Toe0  0.505594 0.0344833 -6.14032
R_Thigh  -24.5572 9.39259 -34.2634
R_Calf  -16.9523 8.709 28.1574
R_Foot  -14.3993 -26.4134 18.2327
R_Toe0  -1.33678 -0.292733 -15.1172
328
root  6.0094 30.2249 -65.9625 151.984 -7.76487 98.9516
Spine  3.29954 6.03474 -7.89056
Spine1  2.11613 -9.59458 4.13096
Neck  3.97569e-016 0 -2.38542e-015
Head  22.3424 -7.53978 21.5721
R_Clavicle  0.385672 -16.2767 1.4788
R_UpperArm  5.3645 -2.13061 8.88373
R_Forearm  22.0193 -18.2906 15.9109
R_Hand  -1.02559 7.77896 -19.07
L_Clavicle  -0.682663 21.5038 -1.30768
L_UpperArm  -8.53902 10.717 23.5305
L_Forearm  -4.00271 37.022 38.6208
L_Hand  -0.032804 -2.1484 -1.28336
L_Thigh  -2.75191 -14.5794 11.3716
L_Calf  8.76017 -1.90321 15.3284
L_Foot  2.44357 14.3082 -3.2094
L_Toe0  0.505638 0.0344871 -6.14075
R_Thigh  -17.2477 8.44996 -31.5605
R_Calf  -19.6898 5.59527 17.4215
R_Foot  -14.3698 -27.9579 16.5523
R_Toe0  -3.13138 0.488452 -6.36151
329
root  6.8579 29.8518 -65.8438 146.698 -8.20035 101.514
Spine  3.45803 2.42228 -5.6778
Spine1  2.48301 -10.1292 4.1094
Neck  3.97569e-016 0 -2.38542e-015
Head  13.8309 -4.46133 23.4507
R_Clavicle  0.364727 -15.6857 1.18748
R_UpperArm  4.8108 -3.08334 10.9223
R_Forearm  25.1962 -19.5854 17.1658
R_Hand  -0.965137 7.93126 -18.6202
L_Clavicle  -0.618315 19.2762 -2.25673
L_UpperArm  -2.92587 10.1967 22.2034
L_Forearm  -11.1119 31.579 36.5945
L_Hand  -0.0630758 -2.6667 -2.7781
L_Thigh  -6.88154 -14.2376 10.39
L_Calf  6.84345 -1.29051 10.8263
L_Foot  3.66526 13.6988 1.02094
L_Toe0  0.505678 0.0344905 -6.14114
R_Thigh  -9.43847 5.7576 -25.2356
R_Calf  -23.9142 0.624122 1.8635
R_Foot  -6.55023 -17.4627 3.51552
R_Toe0  -15.7288 6.4112 2.99861
330
root  7.70674 29.4034 -65.7203 141.11 -7.44891 104.462
Spine  3.13799 -0.640368 -4.22637
Spine1  2.24081 -10.3968 5.9319
Neck  3.97569e-016 0 -2.38542e-015
Head  8.18264 -2.26075 24.945
R_Clavicle  0.331277 -14.6663 0.835616
R_UpperArm  0.370326 -2.59751 12.0236
R_Forearm  28.4078 -20.8658 18.439
R_Hand  -0.790797 8.35126 -17.373
L_Clavicle  -0.522675 17.1772 -3.38041
L_UpperArm  -2.6584 9.63137 21.4939
L_Forearm  -15.7164 25.912 34.1023
L_Hand  -0.0995646 -2.55705 -4.03683
L_Thigh  -10.9612 -13.4532 8.63869
L_Calf  5.46092 -0.619745 5.91275
L_Foot  5.0502 12.9434 5.94863
L_Toe0  0.505714 0.0344935 -6.14148
R_Thigh  -3.45678 1.52976 -18.4613
R_Calf  -22.1727 -3.47975 -10.8603
R_Foot  2.57529 4.5803 -13.4259
R_Toe0  -25.7455 15.7422 13.4418
331
root  8.55304 29.0368 -65.5142 136.94 -5.37333 106.472
Spine  2.41282 -2.78505 -4.57417
Spine1  1.48955 -8.74814 9.84839
Neck  3.97569e-016 0 -2.38542e-015
Head  4.74842 -1.71388 25.8166
R_Clavicle  0.303896 -14.1798 0.543424
R_UpperArm  -4.93758 -0.528202 13.8069
R_Forearm  29.5879 -21.7383 19.3406
R_Hand  -0.68215 8.5086 -16.5999
L_Clavicle  -0.525062 17.1205 -3.83025
L_UpperArm  -9.10964 6.6588 19.6761
L_Forearm  -14.7547 23.9639 30.9328
L_Hand  -0.160196 -1.6865 -4.82092
L_Thigh  -12.8802 -12.3548 6.25595
L_Calf  3.89127 -0.027722 1.65928
L_Foot  6.14849 11.7892 10.4816
L_Toe0  0.505743 0.034496 -6.14177
R_Thigh  1.85574 -1.30771 -15.4588
R_Calf  -14.1581 -6.13441 -19.4884
R_Foot  3.09756 9.26639 -14.1544
R_Toe0  -23.4123 10.1052 4.3361
332
root  9.35016 28.937 -65.1982 134.196 -3.139 107.212
Spine  1.6577 -4.42306 -5.90673
Spine1  0.915116 -5.78596 13.4888
Neck  3.97569e-016 0 -2.38542e-015
Head  1.89174 -1.48503 26.623
R_Clavicle  0.29141 -14.7398 0.243245
R_UpperArm  -6.42139 1.38541 17.9427
R_Forearm  29.1599 -22.8485 19.9925
R_Hand  -0.736451 8.24403 -16.9326
L_Clavicle  -0.612975 18.6565 -3.35202
L_UpperArm  -10.8681 1.2853 15.6729
L_Forearm  -14.6216 23.9794 30.977
L_Hand  -0.232376 -0.859936 -5.63928
L_Thigh  -13.3233 -11.1694 3.57285
L_Calf  2.11969 0.261258 -0.418999
L_Foot  6.66335 10.4409 13.5701
L_Toe0  0.505766 0.0344979 -6.14198
R_Thigh  6.34828 -3.06255 -13.26
R_Calf  -10.1928 -7.82966 -25.25
R_Foot  2.75848 8.01868 -10.9855
R_Toe0  -9.83454 0.869254 -9.92129
333
root  10.0345 29.069 -64.8043 131.754 -1.64893 107.093
Spine  1.06003 -6.09566 -7.13885
Spine1  0.707976 -2.86155 14.6128
Neck  3.97569e-016 0 -2.38542e-015
Head  -0.806051 -0.418618 27.8882
R_Clavicle  0.30738 -16.0235 0.132658
R_UpperArm  -0.663331 1.76637 23.853
R_Forearm  28.3394 -26.2232 20.1492
R_Hand  -0.886446 8.26762 -18.0838
L_Clavicle  -0.648072 19.7548 -2.4646
L_UpperArm  -8.61901 -3.91226 10.2311
L_Forearm  -14.0349 26.058 33.866
L_Hand  -0.256149 -0.757431 -6.08452
L_Thigh  -14.0828 -9.94071 1.13366
L_Calf  0.960065 0.271256 -0.47447
L_Foot  6.85527 9.45781 15.3525
L_Toe0  0.50578 0.0344992 -6.14212
R_Thigh  9.18641 -4.82326 -10.6556
R_Calf  -12.1466 -8.60035 -27.9802
R_Foot  2.33835 6.04567 -10.1113
R_Toe0  -1.73271 -0.417724 -17.4159
